<?xml version="1.0" encoding="utf-8"?>
<!-- Generator: Adobe Illustrator 23.0.1, SVG Export Plug-In . SVG Version: 6.00 Build 0)  -->
<svg version="1.1" id="Layer_1" xmlns="http://www.w3.org/2000/svg" xmlns:xlink="http://www.w3.org/1999/xlink" x="0px" y="0px"
	 viewBox="0 0 993.2 354.2" style="enable-background:new 0 0 993.2 354.2;" xml:space="preserve">
<style type="text/css">
	.st0{fill:#0626A9;}
	.st1{fill:#1226AA;}
	.st2{fill:#011B2B;}
</style>
<g>
	<path class="st0" d="M861.4,249.4c-0.4,0-0.8-0.1-1.1-0.4L715.9,104.5c-0.6-0.6-0.6-1.5,0-2.1s1.5-0.6,2.1,0l144.5,144.5
		c0.6,0.6,0.6,1.5,0,2.1C862.2,249.2,861.8,249.4,861.4,249.4z"/>
</g>
<g>
	<path class="st0" d="M717.1,249.5c-0.4,0-0.8-0.1-1.1-0.4c-0.6-0.6-0.6-1.5,0-2.1l144.5-144.4c0.6-0.6,1.5-0.6,2.1,0s0.6,1.5,0,2.1
		L718.2,249.1C717.9,249.4,717.5,249.5,717.1,249.5z"/>
</g>
<g>
	<path class="st0" d="M789.5,279.4c-0.8,0-1.5-0.7-1.5-1.5V73.5c0-0.8,0.7-1.5,1.5-1.5s1.5,0.7,1.5,1.5v204.4
		C791,278.7,790.3,279.4,789.5,279.4z"/>
</g>
<g>
	<path class="st0" d="M891.7,177.2H687.2c-0.8,0-1.5-0.7-1.5-1.5s0.7-1.5,1.5-1.5h204.4c0.8,0,1.5,0.7,1.5,1.5
		S892.5,177.2,891.7,177.2z"/>
</g>
<g>
	<path class="st0" d="M877.8,126.1H700.3c-0.8,0-1.5-0.7-1.5-1.5s0.7-1.5,1.5-1.5h177.5c0.8,0,1.5,0.7,1.5,1.5
		S878.6,126.1,877.8,126.1z"/>
</g>
<g>
	<path class="st0" d="M877.6,228.3H700.3c-0.8,0-1.5-0.7-1.5-1.5s0.7-1.5,1.5-1.5h177.3c0.8,0,1.5,0.7,1.5,1.5
		S878.5,228.3,877.6,228.3z"/>
</g>
<g>
	<path class="st0" d="M789.5,279.4c-0.8,0-1.5-0.7-1.5-1.5V73.5c0-0.8,0.7-1.5,1.5-1.5s1.5,0.7,1.5,1.5v204.4
		C791,278.7,790.3,279.4,789.5,279.4z"/>
</g>
<g>
	<path class="st0" d="M738.4,265.4c-0.8,0-1.5-0.7-1.5-1.5V87c0-0.8,0.7-1.5,1.5-1.5s1.5,0.7,1.5,1.5v176.9
		C739.9,264.8,739.2,265.4,738.4,265.4z"/>
</g>
<g>
	<path class="st0" d="M840.6,265.4c-0.8,0-1.5-0.7-1.5-1.5V87.3c0-0.8,0.7-1.5,1.5-1.5s1.5,0.7,1.5,1.5v176.6
		C842.1,264.8,841.4,265.4,840.6,265.4z"/>
</g>
<g>
	<path class="st0" d="M891.7,177.2c-0.4,0-0.8-0.1-1.1-0.4L788.4,74.5c-0.6-0.6-0.6-1.5,0-2.1s1.5-0.6,2.1,0l102.2,102.2
		c0.6,0.6,0.6,1.5,0,2.1C892.4,177,892.1,177.2,891.7,177.2z"/>
</g>
<g>
	<path class="st0" d="M789.5,279.4c-0.4,0-0.8-0.1-1.1-0.4L686.2,176.8c-0.6-0.6-0.6-1.5,0-2.1s1.5-0.6,2.1,0l102.2,102.2
		c0.6,0.6,0.6,1.5,0,2.1C790.2,279.3,789.8,279.4,789.5,279.4z"/>
</g>
<g>
	<path class="st0" d="M789.5,279.4c-0.4,0-0.8-0.1-1.1-0.4c-0.6-0.6-0.6-1.5,0-2.1l102.2-102.2c0.6-0.6,1.5-0.6,2.1,0s0.6,1.5,0,2.1
		L790.5,279C790.2,279.3,789.8,279.4,789.5,279.4z"/>
</g>
<g>
	<path class="st0" d="M687.2,177.2c-0.4,0-0.8-0.1-1.1-0.4c-0.6-0.6-0.6-1.5,0-2.1L788.4,72.4c0.6-0.6,1.5-0.6,2.1,0s0.6,1.5,0,2.1
		L688.3,176.8C688,177,687.6,177.2,687.2,177.2z"/>
</g>
<g>
	<path class="st0" d="M789.2,279.3c-57.2,0-103.7-46.5-103.7-103.6c0-57.2,46.5-103.6,103.7-103.6s103.7,46.5,103.7,103.6
		S846.4,279.3,789.2,279.3z M789.2,75c-55.5,0-100.7,45.2-100.7,100.6c0,55.5,45.2,100.6,100.7,100.6s100.7-45.1,100.7-100.6
		S844.7,75,789.2,75z"/>
</g>
<g>
	<path class="st0" d="M798,175.6c0,4.8-3.9,8.7-8.7,8.7s-8.7-3.9-8.7-8.7s3.9-8.7,8.7-8.7C794.2,167,798,170.8,798,175.6"/>
</g>
<g>
	<path class="st0" d="M795.9,226.8c0,3.6-2.9,6.4-6.4,6.4s-6.4-2.9-6.4-6.4s2.9-6.4,6.4-6.4C793,220.4,795.9,223.2,795.9,226.8"/>
</g>
<g>
	<path class="st0" d="M744.8,124.6c0,3.5-2.9,6.4-6.4,6.4s-6.4-2.9-6.4-6.4c0-3.6,2.9-6.4,6.4-6.4
		C741.9,118.2,744.8,121,744.8,124.6"/>
</g>
<g>
	<path class="st0" d="M747,226.8c0,4.8-3.9,8.7-8.7,8.7s-8.7-3.9-8.7-8.7s3.9-8.7,8.7-8.7C743.2,218.1,747,222,747,226.8"/>
</g>
<g>
	<path class="st0" d="M898.1,175.7c0,3.5-2.9,6.4-6.4,6.4s-6.4-2.9-6.4-6.4c0-3.6,2.9-6.4,6.4-6.4
		C895.2,169.3,898.1,172.1,898.1,175.7"/>
</g>
<g>
	<path class="st1" d="M795.9,277.9c0,3.5-2.9,6.4-6.4,6.4s-6.4-2.9-6.4-6.4s2.9-6.4,6.4-6.4S795.9,274.4,795.9,277.9"/>
</g>
<g>
	<path class="st0" d="M849.2,263.9c0,4.8-3.9,8.7-8.7,8.7s-8.7-3.9-8.7-8.7c0-4.8,3.9-8.7,8.7-8.7
		C845.4,255.3,849.2,259.1,849.2,263.9"/>
</g>
<g>
	<path class="st0" d="M706.7,226.8c0,3.6-2.9,6.4-6.4,6.4s-6.4-2.9-6.4-6.4s2.9-6.4,6.4-6.4C703.8,220.4,706.7,223.2,706.7,226.8"/>
</g>
<g>
	<path class="st0" d="M849.2,87.3c0,4.8-3.9,8.7-8.7,8.7s-8.7-3.9-8.7-8.7c0-4.8,3.9-8.7,8.7-8.7C845.4,78.6,849.2,82.5,849.2,87.3"
		/>
</g>
<g>
	<path class="st0" d="M708.9,124.7c0,4.8-3.9,8.7-8.7,8.7s-8.7-3.9-8.7-8.7s3.9-8.7,8.7-8.7C705.1,116.1,708.9,120,708.9,124.7"/>
</g>
<g>
	<path class="st0" d="M884.2,124.6c0,3.5-2.9,6.4-6.4,6.4s-6.4-2.9-6.4-6.4c0-3.6,2.9-6.4,6.4-6.4S884.2,121,884.2,124.6"/>
</g>
<g>
	<path class="st0" d="M847,175.8c0,3.6-2.9,6.4-6.4,6.4s-6.4-2.9-6.4-6.4s2.9-6.4,6.4-6.4C844.1,169.4,847,172.2,847,175.8"/>
</g>
<g>
	<path class="st0" d="M723.4,103.4c0,3.5-2.9,6.4-6.4,6.4s-6.4-2.9-6.4-6.4s2.9-6.4,6.4-6.4S723.4,99.9,723.4,103.4"/>
</g>
<path class="st2" d="M238.6,103.7H214c-0.6,0-1.1,0.3-1.3,0.8l-41.5,77l-41.9-77c-0.3-0.5-0.8-0.8-1.3-0.8h-24.5
	c-0.8,0-1.5,0.7-1.5,1.5v144.9c0,0.8,0.7,1.5,1.5,1.5H127c0.8,0,1.5-0.7,1.5-1.5v-94.6l36.9,64.4c0.3,0.5,0.8,0.8,1.3,0.8h8.6
	c0.5,0,1-0.3,1.3-0.8l36.7-64.6V250c0,0.8,0.7,1.5,1.5,1.5h23.7c0.4,0,0.8-0.2,1.1-0.4c0.3-0.3,0.4-0.7,0.4-1.1V105.2
	C240.1,104.3,239.4,103.7,238.6,103.7z"/>
<path class="st2" d="M607.2,103.3h-22.1c-0.8,0-1.5,0.7-1.5,1.5v145.7c0,0.8,0.7,1.5,1.5,1.5h22.1c0.8,0,1.5-0.7,1.5-1.5V104.8
	C608.7,103.9,608.1,103.3,607.2,103.3z"/>
<path class="st2" d="M546.5,224.7l-16-16.2c-0.6-0.6-1.5-0.6-2.1,0c-11.8,11-22.5,17.8-39.7,17.8c-25.8,0-45.3-20.9-45.3-48.7v-0.4
	c0-13.2,4.6-25.4,12.9-34.4c8.4-9.1,19.9-14.1,32.4-14.1c13.9,0,25.8,5.3,38.7,17.2c0.3,0.3,0.7,0.4,1.1,0.4c0.4,0,0.8-0.2,1.1-0.5
	l16-18.4c0.5-0.6,0.5-1.5-0.1-2.1c-11.6-11.1-27.5-22.5-56.5-22.5c-42.5,0-74.6,32.2-74.6,74.8v0.4c0,20.2,7.5,38.9,21,52.8
	c13.7,14,32.3,21.6,52.6,21.6c16.8,0,36.9-3,58.6-25.6C547.1,226.2,547.1,225.3,546.5,224.7z"/>
<path class="st2" d="M371.8,177.7c-6.9-5.5-15.9-9.1-28.9-11.7c-0.1,0-0.4-0.1-0.7-0.2c-0.2,0-0.4-0.1-0.6-0.1
	c-1.3-0.3-4.2-0.9-7.2-1.5c-3.2-0.6-6.6-1.3-7.6-1.6c-7.9-2.2-12.6-4.3-15.4-7c-2.7-2.5-4-5.8-4.2-10.1v-0.4c0-0.4,0-0.8,0-1.2
	c0.4-9.2,7.6-15.7,18.9-17.1c2.8-0.3,5.5-0.4,8.2-0.2c11.4,0.8,21.1,4.7,29.9,11.8c0.4,0.4,1.2,0.5,1.7,0.3h0.1
	c0.4,0,0.8-0.2,1.1-0.5l13.4-15.9c0.5-0.6,0.5-1.6-0.2-2.1c-14-12.1-29.2-17.5-49.3-17.5c-29.9,0-50,17.4-50,43.4v0.5
	c0,12,3.6,21.1,10.8,27.9c6.5,6.1,16,10.4,28.9,13.1c0.8,0.2,2.8,0.6,4.8,1c1.4,0.3,2.7,0.5,3.3,0.7c0.9,0.2,2.9,0.6,4.8,0.9
	c1.8,0.3,3.6,0.7,4.2,0.8c7.2,1.8,11.9,3.2,15.4,6c4,3.1,5.7,7,5.8,12.7v0.4c0,10.3-8.1,17.1-21.6,18.2c-1.5,0.1-3.1,0.2-4.7,0.2
	l0,0c-1.4,0-2.8,0-4.2-0.1c-14-1-24.9-5.7-35.2-15.2c-0.4-0.4-1-0.5-1.4-0.4h-0.1c-0.4,0-0.8,0.2-1.1,0.5l-14.6,15.9
	c-0.6,0.6-0.5,1.5,0.1,2.1c15.2,14.4,33.6,21.3,56.3,21.3c32.2,0,52.9-17.3,52.9-44v-0.4C385.5,195.1,380.9,184.8,371.8,177.7z"/>
<path class="st0" d="M744.8,87.3c0,3.5-2.9,6.4-6.4,6.4s-6.4-2.9-6.4-6.4c0-3.6,2.9-6.4,6.4-6.4C741.9,80.9,744.8,83.8,744.8,87.3"
	/>
</svg>
